<svg id="レイヤー_1" data-name="レイヤー 1" xmlns="http://www.w3.org/2000/svg" viewBox="0 0 800 800"><defs><style>.cls-1{fill:#03a6a6;}</style></defs><path class="cls-1" d="M107.62,800V754.26c10.77-1.27,21.18-1.63,31.18-3.82C191,739,227.15,694.27,227.5,640.67c.27-42.88.06-85.77.06-128.65q0-176.61,0-353.2c.07-72.33,45.45-133,113.73-151.58C353.24,4,365.85,1.79,378.15,1.73,474.06,1.26,570,1.45,665.9,1.44c1.27,0,2.55.13,4.37.23V47.55c-11.11.65-22.29.47-33.2,2.09-40.5,6-71.33,39.92-72.46,80.6-1,34.28-.42,68.61-.29,102.91,0,3.47,1.49,7.06,2.83,10.38,19,47.43,40.32,94.08,56.78,142.38,30.61,89.87,23.67,178.43-16.78,264.33-.88,1.87-1.78,3.75-2.61,5.65-.19.44-.13,1,0,0,13.51,4.31,27.56,6.82,39.72,13,32,16.4,48.47,43.73,49.83,79.64.65,17.13.1,34.31.1,51.46ZM548.85,48.58c-2.46-.2-3.47-.35-4.48-.35-54.86,0-109.71-.15-164.57.2a102.64,102.64,0,0,0-26.09,3.85c-47.79,13.09-79.29,55.25-79.32,105.94q-.12,239,0,478c0,43.18-13.55,81-42.88,113a22.35,22.35,0,0,0-2.15,3.45H383.18a22.86,22.86,0,0,0,.42-2.81c0-46-.05-92,.18-138,0-4.72-2.33-6.1-5.81-7.79-30.74-14.92-49.78-39.27-54.26-73-2.44-18.42-.95-37.36-1.14-56.06-.11-10.58,0-21.16,0-31.9h46.8v9.17c0,22.35-.24,44.71.17,67.06.38,20.56,13.53,39.22,33.32,44.07,13.26,3.24,27.47,2.63,41.82,3.8v-8.27q0-76.82,0-153.62c-.05-30.81-20.45-51-51.47-51.24-6.65,0-13.29,0-20.31,0,0-12-.17-22.89,0-33.77.85-48.61,36.52-91.84,84.43-100.27,16.47-2.9,33.63-1.84,50.48-2.6,3-.13,6-.33,9.59-.53,0-25.5-.11-50.16.06-74.81a213.77,213.77,0,0,1,1.36-26.43C522.09,90.82,532.37,69,548.85,48.58ZM421.31,310a15.31,15.31,0,0,0,2.35,1.42C468,327.21,491.43,360.18,491.45,407q.06,98.24,0,196.48v9.81H430.92V754.66c10.44-1.57,22.14,0,29.6-4.94C570,677.8,621.65,539,583.28,413.55c-15.2-49.7-37.59-97.2-56.93-145.6-.7-1.76-3.78-3.61-5.77-3.63-15.85-.16-31.75-.61-47.54.44C447.53,266.45,427.55,284.3,421.31,310ZM647.1,752.89c.83-20.46-10-39.27-28.58-44.28-13.46-3.63-28.25-3.81-42.29-3-4.54.27-8.61,8.71-12.83,13.47-4.82,5.44-9.48,11-14.38,16.4-5.15,5.63-10.49,11.08-16.46,17.36Z"/><path class="cls-1" d="M389.07,114h45.62v46H389.07Z"/></svg>